<?xml version="1.0" standalone="no"?>
<!DOCTYPE svg PUBLIC "-//W3C//DTD SVG 20010904//EN"
 "http://www.w3.org/TR/2001/REC-SVG-20010904/DTD/svg10.dtd">
<svg version="1.0" xmlns="http://www.w3.org/2000/svg"
 width="700.000000pt" height="700.000000pt" viewBox="0 0 700.000000 700.000000"
 preserveAspectRatio="xMidYMid meet">
<metadata>
Created by potrace 1.11, written by Peter Selinger 2001-2013
</metadata>
<g transform="translate(0.000000,700.000000) scale(0.100000,-0.100000)"
fill="#000000" stroke="none">
<path d="M1160 4460 c-252 -30 -490 -169 -648 -379 -248 -329 -293 -796 -113
-1169 60 -123 114 -197 216 -297 109 -108 216 -174 352 -221 155 -52 209 -56
834 -52 542 4 567 5 644 26 181 49 383 179 497 318 55 67 122 171 146 227 l12
27 -329 0 c-327 0 -329 0 -382 -24 -95 -44 -151 -47 -684 -44 -492 3 -501 3
-565 26 -232 82 -372 293 -357 537 14 233 147 402 377 481 51 18 92 19 585 19
l530 0 75 -29 75 -30 338 -3 339 -4 -44 82 c-81 152 -229 305 -377 390 -101
58 -240 104 -356 118 -103 12 -1062 13 -1165 1z"/>
<path d="M4679 4460 c-237 -28 -476 -163 -630 -356 -48 -60 -139 -209 -139
-226 0 -5 124 -8 275 -8 l275 0 56 36 c32 20 82 46 113 58 54 20 74 21 605 24
375 2 566 -1 603 -8 149 -31 304 -156 376 -301 40 -81 67 -196 67 -282 -1
-263 -196 -514 -440 -567 -40 -8 -211 -10 -610 -8 l-555 3 -63 27 c-34 15 -83
40 -108 57 l-45 31 -275 0 c-150 0 -274 -3 -274 -6 0 -17 76 -147 120 -205
124 -165 297 -287 493 -348 126 -38 206 -42 797 -39 547 4 568 5 645 26 170
47 324 138 450 268 383 392 406 1062 51 1482 -161 190 -386 313 -621 341 -103
12 -1062 13 -1166 1z"/>
<path d="M2349 3688 c-59 -15 -130 -77 -163 -140 -75 -147 -26 -324 112 -406
l47 -27 1150 -3 c1058 -2 1154 -1 1194 14 54 21 126 85 152 136 38 75 40 209
3 280 -30 58 -94 116 -150 138 -54 20 -71 20 -1182 19 -676 -1 -1141 -5 -1163
-11z"/>
</g>
</svg>
