<?xml version="1.0" encoding="utf-8"?>
<!-- Generator: Adobe Illustrator 23.0.1, SVG Export Plug-In . SVG Version: 6.00 Build 0)  -->
<svg version="1.1" id="Layer_1" xmlns="http://www.w3.org/2000/svg" xmlns:xlink="http://www.w3.org/1999/xlink" x="0px" y="0px"
	 viewBox="0 0 2040 1014.54" style="enable-background:new 0 0 2040 1014.54;" xml:space="preserve">
<style type="text/css">
	.st0{fill:#FFFFFF;}
	.st1{fill:#2CD1DD;}
</style>
<g>
	<g>
		<path class="st0" d="M1284.71,331.19c-37.67-37.67-99.29-55.98-188.38-55.98H957.9c-40.55,0-76.26,27.34-86.83,66.49
			L764.09,737.94c-5.65,20.93-1.33,42.82,11.85,60.03s33.18,27.09,54.87,27.09c31.2,0,58.64-21.04,66.74-51.17l32.09-119.33h77.85
			l112.49,182.26c18.7,29.55,39.54,43.34,65.52,43.34c27.15,0,53.24-15.91,66.45-40.54c10.81-20.14,10.29-41.82-1.43-59.47
			l-92.9-143.64l8.56-2.41c59.4-16.73,88.37-39.95,108.87-60.45c33.49-32.75,51.16-78.13,51.16-131.28
			C1326.21,396.8,1311.86,358.35,1284.71,331.19z M1157.26,512.95c-20.94,20.95-56.86,32.48-101.14,32.48h-97.86l40.56-149.04h90.26
			c33.82,0,58.38,7.41,73,22.02c11.51,10.62,17.2,24.3,17.2,41.64C1179.29,480.55,1171.87,498.34,1157.26,512.95z"/>
		<path class="st0" d="M550.94,739.94l-58.85-380.63c-7.89-51.06-51.13-88.12-102.8-88.12c-34.17,0-66.16,16.79-85.58,44.9
			L20.32,726.34c-13.55,19.61-15.02,43.92-3.95,65.02c11.07,21.1,31.91,33.71,55.74,33.71c21.1,0,40.68-10.48,52.38-28.03
			l48.87-73.3h226.39l5.04,37.37c4.92,36.47,36.38,63.97,73.18,63.97c21.58,0,42.01-9.4,56.06-25.78
			C548.07,782.9,554.24,761.27,550.94,739.94z M247.55,615.41l121.71-185.82l24.16,185.82H247.55z"/>
		<path class="st0" d="M682.49,326.15L571.76,738.44c-5.59,20.83-1.28,42.58,11.85,59.7c13.12,17.11,33.02,26.93,54.58,26.93
			c31.06,0,58.37-20.95,66.43-50.94l110.73-412.29c5.59-20.83,1.27-42.58-11.85-59.7c-13.12-17.11-33.02-26.93-54.58-26.93h0
			C717.86,275.21,690.54,296.16,682.49,326.15z"/>
	</g>
	<g>
		<path class="st1" d="M1377.35,356.07c11.02,1.92,22.17-0.56,31.33-6.99c9.17-6.44,15.28-16.07,17.2-27.11
			c7.12-40.8,42.45-70.41,83.99-70.41c47.01,0,85.26,38.25,85.26,85.27s-38.25,85.27-85.26,85.27h-136.4
			c0.56,6.63,0.84,13.39,0.84,20.28c0,22.42-2.77,43.7-8.11,63.6h143.66c93.27,0,169.14-75.88,169.14-169.14
			s-75.89-169.14-169.16-169.14c-12.6,0-25.24,1.44-37.69,4.29c37-45.61,88.34-72.57,139.06-72.57c21.89,0,39.7-17.81,39.7-39.7
			s-17.81-39.7-39.7-39.7c-142.99,0-268.41,135.11-268.41,289.13c0,0.39,0.04,0.77,0.15,0.8
			C1340.39,331.98,1355.5,352.25,1377.35,356.07z"/>
		<path class="st1" d="M1850.84,287.82c-10.14,0-20.47,1-30.83,2.98c36.45-40.09,83.6-62.88,130.78-62.88
			c21.9,0,39.7-17.81,39.7-39.7s-17.81-39.7-39.7-39.7c-142.99,0-268.42,135.11-268.42,289.13c0,3.71,0.64,7.57,1.92,11.61
			c4.21,16.52,17.84,28.74,34.7,31.15c11.13,1.58,22.16-1.23,31.11-7.97c8.93-6.72,14.73-16.54,16.32-27.64
			c5.94-41.67,42.23-73.09,84.42-73.09c47.03,0,85.28,38.25,85.28,85.27s-38.25,85.27-85.28,85.27h-497.99
			c-9.94,20.75-23.19,39.45-39.69,55.58c-9.18,9.18-19.84,18.82-33.33,28.29h571.01c93.27,0,169.16-75.88,169.16-169.14
			S1944.11,287.82,1850.84,287.82z"/>
	</g>
	<g>
		<path class="st1" d="M319.92,877.16h28.28c22.79,0,38.53,15.64,38.53,36.04v0.21c0,20.41-15.74,36.25-38.53,36.25h-28.28V877.16z
			 M335.87,891.56v43.71h12.33c13.05,0,21.85-8.8,21.85-21.65v-0.21c0-12.84-8.8-21.85-21.85-21.85H335.87z"/>
		<path class="st1" d="M473.42,877.16h54.69v14.19h-38.84v14.71h34.18v14.19h-34.18v15.23h39.36v14.19h-55.2V877.16z"/>
		<path class="st1" d="M610.35,939.1l9.42-11.29c6.53,5.39,13.36,8.8,21.65,8.8c6.52,0,10.46-2.59,10.46-6.83v-0.21
			c0-4.04-2.48-6.11-14.6-9.22c-14.61-3.73-24.03-7.77-24.03-22.17v-0.21c0-13.15,10.56-21.85,25.38-21.85
			c10.56,0,19.58,3.31,26.93,9.22l-8.29,12.01c-6.42-4.45-12.74-7.15-18.85-7.15c-6.11,0-9.32,2.8-9.32,6.32v0.21
			c0,4.76,3.11,6.32,15.64,9.53c14.71,3.83,22.99,9.11,22.99,21.75v0.21c0,14.4-10.98,22.48-26.62,22.48
			C630.13,950.7,619.05,946.87,610.35,939.1z"/>
		<path class="st1" d="M754.84,877.16h15.95v72.5h-15.95V877.16z"/>
		<path class="st1" d="M858.21,913.62v-0.21c0-20.61,16.05-37.49,38.01-37.49c13.05,0,20.92,3.52,28.48,9.94l-10.05,12.12
			c-5.59-4.66-10.56-7.35-18.96-7.35c-11.6,0-20.82,10.25-20.82,22.58v0.21c0,13.26,9.11,22.99,21.96,22.99
			c5.8,0,10.98-1.45,15.02-4.35V921.7h-16.05v-13.78h31.48v31.49c-7.45,6.32-17.71,11.5-30.97,11.5
			C873.75,950.9,858.21,935.06,858.21,913.62z"/>
		<path class="st1" d="M1015.13,877.16h14.71l33.97,44.64v-44.64h15.74v72.5h-13.57l-35.11-46.09v46.09h-15.75V877.16z"/>
	</g>
	<g>
		<path class="st0" d="M1569.39,656.24h-344.37l54.25,83.88h290.12c47.01,0,85.27,38.27,85.27,85.3c0,47-38.25,85.25-85.27,85.25
			c-41.67,0-77.02-29.73-84.04-70.7c-3.9-22.78-25.59-38.18-48.41-34.26c-11.05,1.89-20.69,7.97-27.16,17.11
			c-6.47,9.15-8.99,20.27-7.09,31.32c13.97,81.36,84.08,140.41,166.7,140.41c93.27,0,169.14-75.87,169.14-169.13
			C1738.53,732.13,1662.65,656.24,1569.39,656.24z"/>
	</g>
</g>
</svg>
