<?xml version="1.0" encoding="utf-8"?>
<!-- Generator: Adobe Illustrator 23.0.3, SVG Export Plug-In . SVG Version: 6.00 Build 0)  -->
<svg version="1.1" id="Layer_1" xmlns="http://www.w3.org/2000/svg" xmlns:xlink="http://www.w3.org/1999/xlink" x="0px" y="0px"
	 viewBox="0 0 2040 1014.5" style="enable-background:new 0 0 2040 1014.5;" xml:space="preserve">
<style type="text/css">
	.st0{fill:#272B35;}
	.st1{fill:#2CD1DD;}
</style>
<g>
	<g>
		<path class="st0" d="M1284.7,331.2c-37.7-37.7-99.3-56-188.4-56H957.9c-40.6,0-76.3,27.3-86.8,66.5l-107,396.2
			c-5.7,20.9-1.3,42.8,11.9,60s33.2,27.1,54.9,27.1c31.2,0,58.6-21,66.7-51.2l32.1-119.3h77.8L1120,836.8
			c18.7,29.5,39.5,43.3,65.5,43.3c27.2,0,53.2-15.9,66.4-40.5c10.8-20.1,10.3-41.8-1.4-59.5l-92.9-143.6l8.6-2.4
			c59.4-16.7,88.4-39.9,108.9-60.4c33.5-32.7,51.2-78.1,51.2-131.3C1326.2,396.8,1311.9,358.4,1284.7,331.2z M1157.3,513
			c-20.9,20.9-56.9,32.5-101.1,32.5h-97.9l40.6-149h90.3c33.8,0,58.4,7.4,73,22c11.5,10.6,17.2,24.3,17.2,41.6
			C1179.3,480.5,1171.9,498.3,1157.3,513z"/>
		<path class="st0" d="M550.9,739.9l-58.9-380.6c-7.9-51.1-51.1-88.1-102.8-88.1c-34.2,0-66.2,16.8-85.6,44.9L20.3,726.3
			c-13.5,19.6-15,43.9-4,65c11.1,21.1,31.9,33.7,55.7,33.7c21.1,0,40.7-10.5,52.4-28l48.9-73.3h226.4l5,37.4
			c4.9,36.5,36.4,64,73.2,64c21.6,0,42-9.4,56.1-25.8C548.1,782.9,554.2,761.3,550.9,739.9z M247.5,615.4l121.7-185.8l24.2,185.8
			H247.5z"/>
		<path class="st0" d="M682.5,326.2L571.8,738.4c-5.6,20.8-1.3,42.6,11.8,59.7c13.1,17.1,33,26.9,54.6,26.9
			c31.1,0,58.4-20.9,66.4-50.9l110.7-412.3c5.6-20.8,1.3-42.6-11.8-59.7c-13.1-17.1-33-26.9-54.6-26.9h0
			C717.9,275.2,690.5,296.2,682.5,326.2z"/>
	</g>
	<g>
		<path class="st1" d="M1377.4,356.1c11,1.9,22.2-0.6,31.3-7c9.2-6.4,15.3-16.1,17.2-27.1c7.1-40.8,42.4-70.4,84-70.4
			c47,0,85.3,38.3,85.3,85.3s-38.2,85.3-85.3,85.3h-136.4c0.6,6.6,0.8,13.4,0.8,20.3c0,22.4-2.8,43.7-8.1,63.6h143.7
			c93.3,0,169.1-75.9,169.1-169.1s-75.9-169.1-169.2-169.1c-12.6,0-25.2,1.4-37.7,4.3c37-45.6,88.3-72.6,139.1-72.6
			c21.9,0,39.7-17.8,39.7-39.7S1633.1,20,1611.2,20c-143,0-268.4,135.1-268.4,289.1c0,0.4,0,0.8,0.1,0.8
			C1340.4,332,1355.5,352.3,1377.4,356.1z"/>
		<path class="st1" d="M1850.8,287.8c-10.1,0-20.5,1-30.8,3c36.4-40.1,83.6-62.9,130.8-62.9c21.9,0,39.7-17.8,39.7-39.7
			s-17.8-39.7-39.7-39.7c-143,0-268.4,135.1-268.4,289.1c0,3.7,0.6,7.6,1.9,11.6c4.2,16.5,17.8,28.7,34.7,31.2
			c11.1,1.6,22.2-1.2,31.1-8c8.9-6.7,14.7-16.5,16.3-27.6c5.9-41.7,42.2-73.1,84.4-73.1c47,0,85.3,38.3,85.3,85.3
			s-38.3,85.3-85.3,85.3h-498c-9.9,20.8-23.2,39.4-39.7,55.6c-9.2,9.2-19.8,18.8-33.3,28.3h571c93.3,0,169.2-75.9,169.2-169.1
			S1944.1,287.8,1850.8,287.8z"/>
	</g>
	<g>
		<path class="st1" d="M319.9,877.2h28.3c22.8,0,38.5,15.6,38.5,36v0.2c0,20.4-15.7,36.3-38.5,36.3h-28.3V877.2z M335.9,891.6v43.7
			h12.3c13,0,21.9-8.8,21.9-21.6v-0.2c0-12.8-8.8-21.9-21.9-21.9H335.9z"/>
		<path class="st1" d="M473.4,877.2h54.7v14.2h-38.8v14.7h34.2v14.2h-34.2v15.2h39.4v14.2h-55.2V877.2z"/>
		<path class="st1" d="M610.4,939.1l9.4-11.3c6.5,5.4,13.4,8.8,21.6,8.8c6.5,0,10.5-2.6,10.5-6.8v-0.2c0-4-2.5-6.1-14.6-9.2
			c-14.6-3.7-24-7.8-24-22.2V898c0-13.2,10.6-21.9,25.4-21.9c10.6,0,19.6,3.3,26.9,9.2l-8.3,12c-6.4-4.5-12.7-7.1-18.8-7.1
			c-6.1,0-9.3,2.8-9.3,6.3v0.2c0,4.8,3.1,6.3,15.6,9.5c14.7,3.8,23,9.1,23,21.8v0.2c0,14.4-11,22.5-26.6,22.5
			C630.1,950.7,619.1,946.9,610.4,939.1z"/>
		<path class="st1" d="M754.8,877.2h16v72.5h-16V877.2z"/>
		<path class="st1" d="M858.2,913.6v-0.2c0-20.6,16.1-37.5,38-37.5c13,0,20.9,3.5,28.5,9.9l-10,12.1c-5.6-4.7-10.6-7.4-19-7.4
			c-11.6,0-20.8,10.3-20.8,22.6v0.2c0,13.3,9.1,23,22,23c5.8,0,11-1.4,15-4.3v-10.4h-16.1v-13.8h31.5v31.5
			c-7.5,6.3-17.7,11.5-31,11.5C873.7,950.9,858.2,935.1,858.2,913.6z"/>
		<path class="st1" d="M1015.1,877.2h14.7l34,44.6v-44.6h15.7v72.5H1066l-35.1-46.1v46.1h-15.7V877.2z"/>
	</g>
	<g>
		<path class="st0" d="M1569.4,656.2H1225l54.3,83.9h290.1c47,0,85.3,38.3,85.3,85.3c0,47-38.3,85.2-85.3,85.2
			c-41.7,0-77-29.7-84-70.7c-3.9-22.8-25.6-38.2-48.4-34.3c-11,1.9-20.7,8-27.2,17.1c-6.5,9.1-9,20.3-7.1,31.3
			c14,81.4,84.1,140.4,166.7,140.4c93.3,0,169.1-75.9,169.1-169.1C1738.5,732.1,1662.7,656.2,1569.4,656.2z"/>
	</g>
</g>
</svg>
